<?xml version="1.0" encoding="utf-8"?>
<!-- Generator: Adobe Illustrator 25.4.1, SVG Export Plug-In . SVG Version: 6.00 Build 0)  -->
<svg version="1.1" id="Layer_1" xmlns="http://www.w3.org/2000/svg" xmlns:xlink="http://www.w3.org/1999/xlink" x="0px" y="0px"
	 viewBox="0 0 150 150" style="enable-background:new 0 0 150 150;" xml:space="preserve">
<style type="text/css">
	.st0{fill:#FFFFFF;}
	.st1{fill:none;stroke:#00355E;stroke-width:7;stroke-miterlimit:10;}
	.st2{fill:#00355E;}
</style>
<g>
	<path class="st2" d="M107.57,11.22c1.2,0.19,1.77,0.97,1.94,2.1c0.06,0.41,0.07,0.83,0.07,1.25c0,5.87,0,11.75,0,17.62
		c0,2.78-0.81,3.56-3.54,3.6c-4.21,0.05-8.42-0.21-12.62,0.17c-2.3,0.21-4.44,0.82-5.68,3.04c-0.69,1.22-0.96,2.58-0.98,3.95
		c-0.05,4.42-0.01,8.83-0.08,13.25c-0.02,0.98,0.52,0.82,1.09,0.82c5.83,0,11.66,0,17.5,0c2.65,0,3.52,0.86,3.52,3.51
		c0,6.46,0,12.92-0.01,19.37c0,2.52-0.86,3.37-3.37,3.38c-5.83,0-11.67,0.03-17.5-0.02c-0.98-0.01-1.23,0.24-1.23,1.22
		c0.03,16.91,0.02,33.83,0.02,50.74c0,2.95-0.84,3.78-3.77,3.78c-6.46,0-12.91,0-19.37,0c-3.13,0-3.85-0.71-3.85-3.79
		c0-16.87-0.01-33.75,0.03-50.62c0-1.14-0.32-1.35-1.38-1.34c-4.87,0.06-9.75,0.03-14.62,0.02c-2.42,0-3.32-0.89-3.32-3.3
		c-0.01-6.54-0.01-13.08,0-19.62c0-2.4,0.94-3.33,3.32-3.33c4.87-0.01,9.75-0.03,14.62,0.02c1.04,0.01,1.4-0.16,1.39-1.32
		c-0.06-5.25-0.17-10.51,0.07-15.75c0.33-7.29,2.53-13.96,7.47-19.52c4.19-4.72,9.51-7.4,15.62-8.71c1.27-0.27,2.62-0.15,3.83-0.73
		c0.42,0,0.83,0,1.25,0c0.17,0.16,0.33,0.16,0.5,0c1.58,0,3.17,0,4.75,0c1.6,0.29,3.21,0.05,4.81,0.13c1.98,0,3.96,0,5.93,0
		C105.19,11.18,106.38,11.02,107.57,11.22z"/>
	<path class="st2" d="M104,11.24c-2,0-4,0-6,0c-0.08-0.05-0.11-0.11-0.08-0.17C97.95,11.03,97.97,11,98,11c2,0,4,0,6,0
		c0.08,0.05,0.11,0.11,0.08,0.16C104.06,11.22,104.03,11.24,104,11.24z"/>
	<path class="st2" d="M98,11c0,0.08,0,0.17,0,0.25c-1.58-0.14-3.19,0.3-4.75-0.25C94.83,11,96.42,11,98,11z"/>
	<path class="st2" d="M104,11.24c0-0.08,0-0.16,0-0.24c1.17,0,2.33,0,3.5,0c0.02,0.07,0.05,0.14,0.07,0.22
		C106.38,11.23,105.19,11.24,104,11.24z"/>
	<path class="st2" d="M88.5,11c-0.17,0.28-0.33,0.32-0.5,0C88.17,11,88.33,11,88.5,11z"/>
</g>
</svg>
