<?xml version="1.0" encoding="utf-8"?>
<!-- Generator: Adobe Illustrator 25.4.1, SVG Export Plug-In . SVG Version: 6.00 Build 0)  -->
<svg version="1.1" id="Layer_1" xmlns="http://www.w3.org/2000/svg" xmlns:xlink="http://www.w3.org/1999/xlink" x="0px" y="0px"
	 viewBox="0 0 150 150" style="enable-background:new 0 0 150 150;" xml:space="preserve">
<style type="text/css">
	.st0{fill:#FFFFFF;}
	.st1{fill:none;stroke:#FFFFFF;stroke-width:7;stroke-miterlimit:10;}
</style>
<path class="st0" d="M199.2,146c0.72,0,1.45,0,2.17,0c0.34-0.1,0.69-0.11,1.03,0.01c0.9-0.39,1.86-0.16,2.79-0.29
	c2.27-0.31,4.5-0.73,6.72-1.3c3.28-0.85,6.51-1.84,9.5-3.46c3.44-1.86,6.84-3.78,10.18-5.84c3.4-2.1,6.75-4.26,10.03-6.54
	c4.2-2.91,8.3-5.96,12.26-9.2c3.48-2.85,6.91-5.76,10.22-8.81c2.25-2.07,4.52-4.14,6.62-6.35c3.21-3.37,6.39-6.76,9.38-10.34
	c4.27-5.1,8.23-10.42,11.85-16c2.13-3.28,4.08-6.67,5.93-10.12c2.28-4.23,4.26-8.6,6.04-13.05c1.29-3.24,2.57-6.49,3.37-9.9
	c0.39-1.65,0.68-3.33,0.67-5.04c0-2.54,0.18-5.09-0.2-7.61c-0.41-2.69-1-5.35-1.99-7.91c-1.55-3.98-3.7-7.58-6.52-10.81
	c-3.1-3.55-6.78-6.32-10.82-8.69c-1.01-0.59-2.13-0.71-3.21-0.74c-2.06-0.07-4.05,0.32-5.99,1.16c-2.36,1.03-3.85,2.85-5.19,4.93
	c-2.57,4-5.21,7.94-7.83,11.91c-2.89,4.38-5.81,8.75-8.68,13.14c-1.14,1.73-2.35,3.41-2.77,5.54c-0.49,2.47,0.41,4.98,2.39,6.5
	c4.19,3.22,7.96,6.84,10.21,11.74c1.76,3.83,1.8,7.66,0.02,11.57c-2.16,4.73-4.88,9.11-8,13.24c-2.57,3.4-5.5,6.47-8.63,9.35
	c-3.78,3.48-7.92,6.51-12.35,9.13c-2.89,1.71-5.87,3.27-8.97,4.55c-3.16,1.31-6.15,0.53-8.99-1.13c-1.09-0.64-1.97-1.53-2.84-2.45
	c-2.69-2.83-5.39-5.65-8.2-8.36c-1.25-1.21-2.95-1.68-4.68-1.79c-2.67-0.17-4.98,0.79-7.12,2.36c-2.11,1.54-4.31,2.95-6.49,4.39
	c-3.59,2.38-7.19,4.75-10.78,7.12c-3.52,2.33-7.04,4.66-10.57,6.97c-0.72,0.47-1.19,1.11-1.64,1.8c-1.33,2.09-2.18,4.33-2.16,6.86
	c0.02,2.18,0.84,4.05,2,5.83c1.53,2.35,3.32,4.51,5.3,6.47c2.49,2.46,5.25,4.61,8.31,6.36c2.77,1.59,5.7,2.79,8.79,3.57
	c2.13,0.54,4.27,1.06,6.49,1.06c0.43,0,0.87,0.1,1.3,0.15C198.51,145.89,198.85,145.9,199.2,146z"/>
<g>
	<rect x="70" y="212.58" class="st1" width="144" height="86.84"/>
	<g>
		<line class="st1" x1="214" y1="298.87" x2="158.75" y2="256.27"/>
		<line class="st1" x1="125.25" y1="256.27" x2="70" y2="298.87"/>
	</g>
	<g>
		<polyline class="st1" points="214,213.68 142,269.19 70,213.68 		"/>
	</g>
</g>
<path class="st0" d="M-178,16c-22.92,0-41.49,18.58-41.49,41.49C-219.49,80.41-178,134-178,134s41.49-53.59,41.49-76.51
	C-136.51,34.58-155.08,16-178,16z M-178,73.7c-8.59,0-15.56-6.97-15.56-15.56c0-8.59,6.97-15.56,15.56-15.56s15.56,6.97,15.56,15.56
	C-162.44,66.74-169.41,73.7-178,73.7z"/>
<path class="st0" d="M-262.85,32.68c-18.33-18.33-48.14-18.33-66.47,0s-18.33,48.14,0,66.47c15.9,15.9,40.44,17.99,58.63,6.31
	l22.68,22.68c3.9,3.9,10.24,3.91,14.14,0c3.9-3.9,3.9-10.24,0-14.14l-22.68-22.68C-244.86,73.12-246.96,48.58-262.85,32.68z
	 M-277,85c-10.53,10.53-27.66,10.53-38.18,0s-10.53-27.66,0-38.18s27.66-10.53,38.18,0S-266.47,74.48-277,85z"/>
<g>
	<path class="st0" d="M-3.94-100.3c0-3.3-0.28-6.55-1.22-9.75c-2.25-7.6-6.41-13.92-12.57-18.88c-6.96-5.61-14.9-8.23-23.89-8.17
		c-20.2,0.13-40.4,0.06-60.6,0.03c-4.53-0.01-8.91,0.64-13.12,2.36c-10.22,4.15-17.38,11.32-21.48,21.56
		c-1.22,3.04-1.86,6.19-2.16,9.43c0,0.35,0,0.7,0,1.05c0,0.26,0,0.53,0,0.79c0,0.18,0,0.35,0,0.53c0,21.26,0,42.52,0,63.78
		c0,0.18,0,0.35,0,0.53c0,0.26,0,0.53,0,0.79c0,0.35,0,0.7,0,1.05c0.3,2.79,0.81,5.52,1.73,8.18c2.14,6.15,5.64,11.36,10.47,15.7
		c2.83,2.54,5.94,4.64,9.41,6.21c3.7,1.67,7.55,2.77,11.6,3.11c0.44,0,0.88,0,1.32,0c0.18,0,0.35,0,0.53,0c0.18,0,0.35,0,0.53,0
		c21.17,0,42.34,0,63.51,0c0.18,0,0.35,0,0.53,0c0.18,0,0.35,0,0.53,0c0.35,0,0.7,0,1.05,0c1.58-0.35,3.22-0.17,4.8-0.56
		c7.63-1.86,14.18-5.55,19.45-11.42c6.2-6.9,9.61-14.9,9.61-24.26C-3.94-58.93-3.93-79.61-3.94-100.3z M-16.04-39.91
		c-0.02,11.56-6.47,20.74-17.17,24.58c-2.93,1.05-5.98,1.36-9.06,1.37c-9.75,0.01-19.5,0-29.25,0c-9.79,0-19.59-0.01-29.38,0.01
		c-5.64,0.01-10.87-1.35-15.45-4.7c-7.12-5.2-10.66-12.3-10.68-21.08c-0.04-19.81-0.05-39.61,0-59.42
		c0.03-11.5,6.51-20.62,17.16-24.45c2.84-1.02,5.8-1.36,8.8-1.36c19.67-0.01,39.35-0.02,59.02,0c11.61,0.01,20.85,6.49,24.67,17.23
		c1,2.8,1.33,5.72,1.33,8.67C-16.02-79.35-16-59.63-16.04-39.91z"/>
	<path class="st0" d="M-35.35-114.35c4.81-0.04,8.81,3.91,8.84,8.72c0.03,4.72-3.91,8.71-8.67,8.77c-4.81,0.07-8.81-3.82-8.9-8.66
		C-44.18-110.27-40.19-114.31-35.35-114.35z"/>
	<path class="st0" d="M-71.51-104.24c-19.07-0.03-34.77,15.64-34.8,34.75c-0.03,19.07,15.64,34.77,34.75,34.8
		c19.07,0.03,34.77-15.64,34.8-34.75C-36.73-88.52-52.4-104.21-71.51-104.24z M-71.63-46.69c-12.64-0.15-22.78-10.36-22.69-22.84
		c0.1-12.61,10.29-22.76,22.81-22.72c12.57,0.04,22.75,10.23,22.75,22.78C-48.74-56.89-59.14-46.54-71.63-46.69z"/>
</g>
<g>
	<path class="st0" d="M107.57,11.22c1.2,0.19,1.77,0.97,1.94,2.1c0.06,0.41,0.07,0.83,0.07,1.25c0,5.87,0,11.75,0,17.62
		c0,2.78-0.81,3.56-3.54,3.6c-4.21,0.05-8.42-0.21-12.62,0.17c-2.3,0.21-4.44,0.82-5.68,3.04c-0.69,1.22-0.96,2.58-0.98,3.95
		c-0.05,4.42-0.01,8.83-0.08,13.25c-0.02,0.98,0.52,0.82,1.09,0.82c5.83,0,11.66,0,17.5,0c2.65,0,3.52,0.86,3.52,3.51
		c0,6.46,0,12.92-0.01,19.37c0,2.52-0.86,3.37-3.37,3.38c-5.83,0-11.67,0.03-17.5-0.02c-0.98-0.01-1.23,0.24-1.23,1.22
		c0.03,16.91,0.02,33.83,0.02,50.74c0,2.95-0.84,3.78-3.77,3.78c-6.46,0-12.91,0-19.37,0c-3.13,0-3.85-0.71-3.85-3.79
		c0-16.87-0.01-33.75,0.03-50.62c0-1.14-0.32-1.35-1.38-1.34c-4.87,0.06-9.75,0.03-14.62,0.02c-2.42,0-3.32-0.89-3.32-3.3
		c-0.01-6.54-0.01-13.08,0-19.62c0-2.4,0.94-3.33,3.32-3.33c4.87-0.01,9.75-0.03,14.62,0.02c1.04,0.01,1.4-0.16,1.39-1.32
		c-0.06-5.25-0.17-10.51,0.07-15.75c0.33-7.29,2.53-13.96,7.47-19.52c4.19-4.72,9.51-7.4,15.62-8.71c1.27-0.27,2.62-0.15,3.83-0.73
		c0.42,0,0.83,0,1.25,0c0.17,0.16,0.33,0.16,0.5,0c1.58,0,3.17,0,4.75,0c1.6,0.29,3.21,0.05,4.81,0.13c1.98,0,3.96,0,5.93,0
		C105.19,11.18,106.38,11.02,107.57,11.22z"/>
	<path class="st0" d="M104,11.24c-2,0-4,0-6,0c-0.08-0.05-0.11-0.11-0.08-0.17C97.95,11.03,97.97,11,98,11c2,0,4,0,6,0
		c0.08,0.05,0.11,0.11,0.08,0.16C104.06,11.22,104.03,11.24,104,11.24z"/>
	<path class="st0" d="M98,11c0,0.08,0,0.17,0,0.25c-1.58-0.14-3.19,0.3-4.75-0.25C94.83,11,96.42,11,98,11z"/>
	<path class="st0" d="M104,11.24c0-0.08,0-0.16,0-0.24c1.17,0,2.33,0,3.5,0c0.02,0.07,0.05,0.14,0.07,0.22
		C106.38,11.23,105.19,11.24,104,11.24z"/>
	<path class="st0" d="M88.5,11c-0.17,0.28-0.33,0.32-0.5,0C88.17,11,88.33,11,88.5,11z"/>
</g>
</svg>
