<?xml version="1.0" encoding="utf-8"?>
<!-- Generator: Adobe Illustrator 25.4.1, SVG Export Plug-In . SVG Version: 6.00 Build 0)  -->
<svg version="1.1" id="Layer_1" xmlns="http://www.w3.org/2000/svg" xmlns:xlink="http://www.w3.org/1999/xlink" x="0px" y="0px"
	 viewBox="0 0 150 150" style="enable-background:new 0 0 150 150;" xml:space="preserve">
<style type="text/css">
	.st0{fill:#FFFFFF;}
	.st1{fill:none;stroke:#00355E;stroke-width:7;stroke-miterlimit:10;}
	.st2{fill:#00355E;}
</style>
<g>
	<path class="st2" d="M142.53,44.26c0-3.3-0.28-6.55-1.22-9.75c-2.25-7.6-6.41-13.92-12.57-18.88c-6.96-5.61-14.9-8.23-23.89-8.17
		c-20.2,0.13-40.4,0.06-60.6,0.03c-4.53-0.01-8.91,0.64-13.12,2.36C20.9,13.99,13.73,21.15,9.63,31.4
		c-1.22,3.04-1.86,6.19-2.16,9.43c0,0.35,0,0.7,0,1.05c0,0.26,0,0.53,0,0.79c0,0.18,0,0.35,0,0.53c0,21.26,0,42.52,0,63.78
		c0,0.18,0,0.35,0,0.53c0,0.26,0,0.53,0,0.79c0,0.35,0,0.7,0,1.05c0.3,2.79,0.81,5.52,1.73,8.18c2.14,6.15,5.64,11.36,10.47,15.7
		c2.83,2.54,5.94,4.64,9.41,6.21c3.7,1.67,7.55,2.77,11.6,3.11c0.44,0,0.88,0,1.32,0c0.18,0,0.35,0,0.53,0c0.18,0,0.35,0,0.53,0
		c21.17,0,42.34,0,63.51,0c0.18,0,0.35,0,0.53,0c0.18,0,0.35,0,0.53,0c0.35,0,0.7,0,1.05,0c1.58-0.35,3.22-0.17,4.8-0.56
		c7.63-1.86,14.18-5.55,19.45-11.42c6.2-6.9,9.61-14.9,9.61-24.26C142.53,85.63,142.54,64.94,142.53,44.26z M130.43,104.64
		c-0.02,11.56-6.47,20.74-17.17,24.58c-2.93,1.05-5.98,1.36-9.06,1.37c-9.75,0.01-19.5,0-29.25,0c-9.79,0-19.59-0.01-29.38,0.01
		c-5.64,0.01-10.87-1.35-15.45-4.7c-7.12-5.2-10.66-12.3-10.68-21.08c-0.04-19.81-0.05-39.61,0-59.42
		c0.03-11.5,6.51-20.62,17.16-24.45c2.84-1.02,5.8-1.36,8.8-1.36c19.67-0.01,39.35-0.02,59.02,0c11.61,0.01,20.85,6.49,24.67,17.23
		c1,2.8,1.33,5.72,1.33,8.67C130.45,65.2,130.46,84.92,130.43,104.64z"/>
	<path class="st2" d="M111.11,30.2c4.81-0.04,8.81,3.91,8.84,8.72c0.03,4.72-3.91,8.71-8.67,8.77c-4.81,0.07-8.81-3.82-8.9-8.66
		C102.29,34.28,106.28,30.24,111.11,30.2z"/>
	<path class="st2" d="M74.96,40.31c-19.07-0.03-34.77,15.64-34.8,34.75c-0.03,19.07,15.64,34.77,34.75,34.8
		c19.07,0.03,34.77-15.64,34.8-34.75C109.74,56.04,94.07,40.34,74.96,40.31z M74.84,97.87C62.2,97.72,52.06,87.5,52.15,75.02
		c0.1-12.61,10.29-22.76,22.81-22.72c12.57,0.04,22.75,10.23,22.75,22.78C97.72,87.66,87.33,98.01,74.84,97.87z"/>
</g>
</svg>
