<?xml version="1.0" encoding="utf-8"?>
<!-- Generator: Adobe Illustrator 25.4.1, SVG Export Plug-In . SVG Version: 6.00 Build 0)  -->
<svg version="1.1" id="Layer_1" xmlns="http://www.w3.org/2000/svg" xmlns:xlink="http://www.w3.org/1999/xlink" x="0px" y="0px"
	 viewBox="0 0 150 150" style="enable-background:new 0 0 150 150;" xml:space="preserve">
<style type="text/css">
	.st0{fill:#FFFFFF;}
	.st1{fill:none;stroke:#00355E;stroke-width:7;stroke-miterlimit:10;}
	.st2{fill:#00355E;}
</style>
<g>
	<path class="st2" d="M129.94,70.79c-0.1-4.9-1.04-9.63-2.65-14.22c-3.08-8.76-8.01-16.3-14.87-22.59
		c-5.69-5.22-12.16-9.1-19.44-11.63c-4.42-1.54-8.96-2.37-13.66-2.47c-4.46-0.09-8.93-0.17-13.36,0.34
		c-5.21,0.6-10.12,2.35-14.83,4.63c-5.97,2.9-11.2,6.79-15.82,11.56c-4.78,4.94-8.47,10.57-11.15,16.87
		c-3.04,7.14-4.34,14.6-4.14,22.36c0.12,4.78,0.56,9.49,1.95,14.08c0.81,2.68,1.68,5.34,2.92,7.86c0.55,1.11,0.85,2.22,0.57,3.52
		c-1.37,6.42-2.68,12.86-3.99,19.29c-0.5,2.44-1.24,4.85-1.29,7.36c-0.03,1.82,0.02,1.86,1.69,2.44c0.43,0,0.86,0,1.29,0
		c1.78-0.36,3.61-0.34,5.38-0.77c6.13-1.51,12.28-2.96,18.43-4.37c4.18-0.96,2.85-1.15,6.78,0.49c10.71,4.49,21.79,5.4,33.12,2.99
		c9.59-2.04,17.99-6.47,25.24-13.04c5.51-4.99,9.9-10.84,13.01-17.63c2.26-4.93,3.97-10.02,4.54-15.42
		C130.09,78.57,130.02,74.68,129.94,70.79z M112.54,95.28c-3.99,7.21-9.62,12.82-16.82,16.83c-4.72,2.63-9.78,4.23-15.14,4.95
		c-1.86,0.25-3.73,0.18-5.25,0.37c-7.31-0.03-13.93-1.59-20.07-4.9c-2.12-1.14-4.04-1.43-6.39-0.75c-4.13,1.19-8.36,2.02-12.54,3.04
		c-0.95,0.23-1.07,0-0.88-0.89c1.07-5.01,2.08-10.04,3.14-15.06c0.17-0.78,0.09-1.44-0.3-2.15c-2.45-4.49-4.42-9.17-5.32-14.25
		c-1.53-8.68-0.62-17.09,2.95-25.16c3.92-8.87,10.2-15.64,18.69-20.28c7.01-3.83,14.55-5.55,22.57-5.15
		c7.63,0.38,14.65,2.59,21.05,6.74c6.49,4.2,11.51,9.76,15.04,16.66c3.02,5.92,4.53,12.23,4.6,18.85
		C117.95,81.63,116.17,88.71,112.54,95.28z"/>
	<path class="st2" d="M90.24,101.2c-6.04-0.03-10.78-1.53-15.17-4.01c-9.84-5.54-17.93-12.98-23.81-22.68
		c-1.91-3.15-3.07-6.6-3.59-10.29c-0.75-5.25,1.04-9.5,4.75-13.09c0.64-0.62,1.29-1.24,1.98-1.83c2.07-1.77,5.01-1.28,6.19,1.17
		c1.62,3.39,3.1,6.86,4.57,10.32c0.59,1.39,0.34,2.75-0.57,3.96c-0.67,0.89-1.37,1.75-2.03,2.65c-1.26,1.72-1.28,3.31-0.05,5.07
		c3.01,4.31,6.91,7.76,10.96,11.04c1.95,1.58,3.99,3.04,6.27,4.15c1.87,0.92,3.42,0.71,4.93-0.73c0.75-0.72,1.47-1.47,2.19-2.22
		c1.27-1.31,2.76-1.72,4.51-1.21c3.3,0.96,6.62,1.88,9.92,2.87c3.15,0.95,4.09,3.8,2.21,6.52c-0.78,1.12-1.57,2.23-2.45,3.27
		C97.95,99.78,94.04,101.42,90.24,101.2z"/>
</g>
</svg>
