<?xml version="1.0" encoding="utf-8"?>
<!-- Generator: Adobe Illustrator 25.4.1, SVG Export Plug-In . SVG Version: 6.00 Build 0)  -->
<svg version="1.1" id="Layer_1" xmlns="http://www.w3.org/2000/svg" xmlns:xlink="http://www.w3.org/1999/xlink" x="0px" y="0px"
	 viewBox="0 0 150 150" style="enable-background:new 0 0 150 150;" xml:space="preserve">
<style type="text/css">
	.st0{fill:#FFFFFF;}
</style>
<path class="st0" d="M37.2,145.99c0.72,0,1.45,0,2.17,0c0.34-0.1,0.69-0.11,1.03,0.01c0.9-0.39,1.86-0.16,2.79-0.29
	c2.27-0.31,4.5-0.73,6.72-1.3c3.28-0.85,6.51-1.84,9.5-3.46c3.44-1.86,6.84-3.78,10.18-5.84c3.4-2.1,6.75-4.27,10.03-6.54
	c4.2-2.91,8.3-5.96,12.26-9.2c3.48-2.85,6.91-5.76,10.22-8.81c2.25-2.07,4.52-4.14,6.62-6.35c3.21-3.37,6.39-6.76,9.38-10.34
	c4.27-5.1,8.23-10.42,11.85-16c2.13-3.28,4.08-6.67,5.93-10.12c2.28-4.23,4.26-8.6,6.04-13.05c1.29-3.24,2.57-6.49,3.37-9.9
	c0.39-1.65,0.68-3.33,0.67-5.04c0-2.54,0.18-5.09-0.2-7.61c-0.41-2.69-1-5.35-1.99-7.91c-1.55-3.98-3.7-7.58-6.52-10.81
	c-3.1-3.55-6.78-6.32-10.82-8.69c-1.01-0.59-2.13-0.71-3.21-0.74c-2.06-0.07-4.05,0.32-5.99,1.16c-2.36,1.03-3.85,2.85-5.19,4.93
	c-2.57,4-5.21,7.94-7.83,11.91c-2.89,4.38-5.81,8.75-8.68,13.14c-1.14,1.73-2.35,3.41-2.77,5.54c-0.49,2.47,0.41,4.98,2.39,6.5
	c4.19,3.22,7.96,6.84,10.21,11.74c1.76,3.83,1.8,7.66,0.02,11.57c-2.16,4.73-4.88,9.11-8,13.24c-2.57,3.4-5.5,6.47-8.63,9.35
	c-3.78,3.48-7.92,6.51-12.35,9.13c-2.89,1.71-5.87,3.27-8.97,4.55c-3.16,1.31-6.16,0.53-8.99-1.13c-1.09-0.64-1.97-1.53-2.84-2.45
	c-2.69-2.83-5.39-5.65-8.2-8.36c-1.25-1.21-2.95-1.68-4.68-1.79c-2.67-0.17-4.98,0.79-7.12,2.36c-2.11,1.54-4.31,2.95-6.49,4.39
	c-3.59,2.38-7.19,4.75-10.78,7.12c-3.52,2.33-7.04,4.66-10.57,6.97c-0.72,0.47-1.19,1.11-1.64,1.8c-1.33,2.09-2.18,4.33-2.16,6.86
	c0.02,2.18,0.84,4.05,2,5.83c1.53,2.35,3.32,4.51,5.3,6.47c2.49,2.46,5.25,4.61,8.31,6.36c2.77,1.59,5.7,2.79,8.79,3.57
	c2.13,0.54,4.27,1.06,6.49,1.06c0.43,0,0.87,0.1,1.3,0.15C36.51,145.88,36.85,145.89,37.2,145.99z"/>
</svg>
