<?xml version="1.0" encoding="utf-8"?>
<!-- Generator: Adobe Illustrator 25.4.1, SVG Export Plug-In . SVG Version: 6.00 Build 0)  -->
<svg version="1.1" id="Layer_1" xmlns="http://www.w3.org/2000/svg" xmlns:xlink="http://www.w3.org/1999/xlink" x="0px" y="0px"
	 viewBox="0 0 150 150" style="enable-background:new 0 0 150 150;" xml:space="preserve">
<style type="text/css">
	.st0{fill:#FFFFFF;}
	.st1{fill:none;stroke:#00355E;stroke-width:7;stroke-miterlimit:10;}
	.st2{fill:#00355E;}
</style>
<g>
	<path class="st2" d="M133.39,66.67c-0.96-7.62-3.41-14.77-7.26-21.43c-3.39-5.87-7.64-11.01-12.78-15.42
		c-5.55-4.77-11.78-8.42-18.69-10.87c-3.4-1.2-6.87-2.24-10.48-2.56c-4.89-0.43-9.79-0.5-14.69-0.24c-1.98,0.11-3.98,0.11-5.94,0.51
		c-6.45,1.29-12.52,3.57-18.22,6.87c-5.6,3.25-10.46,7.39-14.75,12.19c-3.88,4.34-6.99,9.21-9.38,14.54
		c-2.28,5.07-4.01,10.31-4.6,15.84c-0.44,4.05-0.38,8.12-0.28,12.2c0.1,3.87,0.52,7.66,1.55,11.37c0.92,3.33,2,6.61,3.55,9.71
		c0.56,1.13,0.76,2.27,0.48,3.56c-1.46,6.86-2.86,13.74-4.26,20.62c-0.54,2.63-1.3,5.24-1.26,7.97c0.03,1.87,0.01,1.87,1.7,2.47
		c0.46,0,0.92,0,1.38,0c1.9-0.38,3.86-0.36,5.75-0.83c6.55-1.61,13.12-3.17,19.7-4.67c4.49-1.03,3.04-1.26,7.25,0.53
		c6.19,2.64,12.66,4.09,19.41,4.43c7.11,0.36,14.07-0.37,20.86-2.51c10.96-3.46,20.14-9.63,27.59-18.36
		c5.77-6.76,9.74-14.49,12.02-23.07c0.99-3.73,1.56-7.52,1.64-11.41C133.76,74.28,133.87,70.46,133.39,66.67z M114.97,96.68
		c-4.26,7.71-10.28,13.7-17.97,17.99c-5.04,2.81-10.45,4.52-16.18,5.29c-1.98,0.27-3.98,0.19-5.61,0.39
		c-7.81-0.03-14.89-1.7-21.45-5.23c-2.27-1.22-4.32-1.52-6.82-0.8c-4.41,1.27-8.94,2.15-13.4,3.25c-1.01,0.25-1.14,0-0.94-0.95
		c1.14-5.36,2.22-10.73,3.36-16.09c0.18-0.84,0.1-1.54-0.32-2.3c-2.62-4.8-4.72-9.8-5.68-15.22c-1.64-9.28-0.66-18.27,3.15-26.88
		c4.19-9.47,10.9-16.72,19.97-21.68c7.49-4.1,15.55-5.93,24.12-5.51c8.15,0.4,15.66,2.77,22.5,7.2c6.94,4.49,12.3,10.43,16.07,17.81
		c3.23,6.33,4.85,13.07,4.92,20.15C120.75,82.09,118.85,89.66,114.97,96.68z"/>
	<path class="st2" d="M91.14,103.01c-6.46-0.03-11.52-1.64-16.21-4.28c-10.52-5.92-19.17-13.87-25.45-24.24
		c-2.04-3.37-3.28-7.06-3.84-10.99c-0.8-5.61,1.11-10.16,5.08-13.99c0.69-0.67,1.38-1.33,2.11-1.95c2.22-1.89,5.36-1.37,6.61,1.25
		c1.74,3.63,3.31,7.33,4.89,11.03c0.63,1.48,0.36,2.94-0.61,4.24c-0.71,0.95-1.46,1.87-2.16,2.83c-1.34,1.84-1.37,3.54-0.06,5.41
		c3.22,4.61,7.38,8.29,11.71,11.8c2.09,1.69,4.27,3.25,6.7,4.44c2,0.98,3.66,0.76,5.26-0.78c0.8-0.77,1.57-1.57,2.35-2.37
		c1.35-1.39,2.95-1.84,4.83-1.3c3.53,1.02,7.08,2.01,10.6,3.07c3.36,1.01,4.37,4.07,2.36,6.97c-0.83,1.2-1.67,2.38-2.62,3.49
		C99.38,101.49,95.2,103.24,91.14,103.01z"/>
</g>
</svg>
